<svg width="144" height="144" viewBox="0 0 144 144" xmlns="http://www.w3.org/2000/svg">
  <rect width="144" height="144" rx="32" fill="#172B4D"/>
  
  <rect x="28" y="32" width="24" height="80" rx="6" fill="#FAFBFC" opacity="0.15"/>
  <rect x="60" y="32" width="24" height="80" rx="6" fill="#FAFBFC" opacity="0.15"/>
  <rect x="92" y="32" width="24" height="80" rx="6" fill="#FAFBFC" opacity="0.15"/>
  
  <rect x="32" y="40" width="16" height="16" rx="4" fill="#61BD4F"/>
  <rect x="64" y="40" width="16" height="16" rx="4" fill="#F2D600"/>
  
  <rect x="96" y="56" width="16" height="16" rx="4" fill="#EB5A46"/>
  
  <path d="M 76 90 L 112 54" stroke="#00C7E6" stroke-width="6" stroke-linecap="round"/>
  <path d="M 104 50 L 116 62" stroke="#00C7E6" stroke-width="5" stroke-linecap="round"/>
  <path d="M 72 82 L 84 94" stroke="#00C7E6" stroke-width="5" stroke-linecap="round"/>
  
  <path d="M 112 36 L 114 42 L 120 44 L 114 46 L 112 52 L 110 46 L 104 44 L 110 42 Z" fill="#FFFFFF"/>
</svg>
